<?xml version="1.0"?>
<svg xmlns="http://www.w3.org/2000/svg" xmlns:xlink="http://www.w3.org/1999/xlink" id="Gradient" viewBox="0 0 512 512" width="512" height="512"><defs><linearGradient id="linear-gradient" x1="256" y1="488" x2="256" y2="24" gradientUnits="userSpaceOnUse"><stop offset="0" stop-color="#12c2e9"/><stop offset="0.5" stop-color="#c471ed"/><stop offset="1" stop-color="#f64f59"/></linearGradient></defs><path d="M472,24H40A24.028,24.028,0,0,0,16,48V464a24.028,24.028,0,0,0,24,24H472a24.028,24.028,0,0,0,24-24V48A24.028,24.028,0,0,0,472,24ZM40,40H472a8.009,8.009,0,0,1,8,8V88H32V48A8.009,8.009,0,0,1,40,40ZM472,472H40a8.009,8.009,0,0,1-8-8V104H480V464A8.009,8.009,0,0,1,472,472ZM112,64a8,8,0,1,1,8,8A8,8,0,0,1,112,64ZM80,64a8,8,0,1,1,8,8A8,8,0,0,1,80,64ZM48,64a8,8,0,1,1,8,8A8,8,0,0,1,48,64Zm392,72H72a8,8,0,0,0-8,8V272a8,8,0,0,0,8,8H440a8,8,0,0,0,8-8V144A8,8,0,0,0,440,136ZM308.849,254.465,328,235.313,356.687,264H316ZM296,264H232l32-42.667Zm-84,0H151.365L192,205.95l30.673,43.819Zm220,0H379.313l-45.656-45.657a8,8,0,0,0-11.314,0l-23.192,23.192L270.4,203.2a8,8,0,0,0-12.8,0l-24.825,33.1-34.221-48.888a8,8,0,0,0-13.108,0L131.835,264H80V152H432ZM296,192a8,8,0,1,1,8,8A8,8,0,0,1,296,192Zm-8,120a8,8,0,1,1,8-8A8,8,0,0,1,288,312Zm-32,0a8,8,0,1,1,8-8A8,8,0,0,1,256,312Zm-32,0a8,8,0,1,1,8-8A8,8,0,0,1,224,312Zm-56,16H72a8,8,0,0,0-8,8v64a8,8,0,0,0,8,8h96a8,8,0,0,0,8-8V336A8,8,0,0,0,168,328Zm-8,16v45.755l-35-28a8,8,0,0,0-10,0l-35,28V344Zm-22.806,48H102.806L120,378.245ZM304,328H208a8,8,0,0,0-8,8v64a8,8,0,0,0,8,8h96a8,8,0,0,0,8-8V336A8,8,0,0,0,304,328Zm-8,16v45.755l-35-28a8,8,0,0,0-10,0l-35,28V344Zm-22.806,48H238.806L256,378.245ZM440,328H344a8,8,0,0,0-8,8v64a8,8,0,0,0,8,8h96a8,8,0,0,0,8-8V336A8,8,0,0,0,440,328Zm-8,16v45.755l-35-28a8,8,0,0,0-10,0l-35,28V344Zm-22.806,48H374.806L392,378.245ZM160,432a8,8,0,0,1-8,8H88a8,8,0,0,1,0-16h64A8,8,0,0,1,160,432Zm136,0a8,8,0,0,1-8,8H224a8,8,0,0,1,0-16h64A8,8,0,0,1,296,432Zm136,0a8,8,0,0,1-8,8H360a8,8,0,0,1,0-16h64A8,8,0,0,1,432,432Z" style="fill:url(#linear-gradient)"/></svg>
